<svg width="24" height="25" viewBox="0 0 24 25" fill="none" xmlns="http://www.w3.org/2000/svg">
<path d="M16.4268 4.125L16.6572 4.12695C19.9247 4.17503 22.0196 7.44212 21.3916 10.8477L21.3223 11.1777C20.8718 13.0853 19.3025 14.9478 17.4922 16.5264C15.9221 17.8954 14.2286 19.0008 13.0918 19.6836L12.6406 19.9502C12.2889 20.154 11.879 20.1794 11.5127 20.0264L11.3594 19.9502C10.2576 19.3116 8.30215 18.0909 6.50781 16.5264C4.81062 15.0465 3.32558 13.3173 2.77539 11.5352L2.67773 11.1777C1.87234 7.76633 3.83985 4.39399 7.03027 4.1416L7.34277 4.12695C7.41839 4.12584 7.49525 4.125 7.57324 4.125C8.77231 4.12502 9.88486 4.65381 10.6592 5.14941L10.9697 5.3584C11.5406 5.761 12.3175 5.78609 12.9141 5.43359L13.0303 5.3584C13.799 4.81604 15.0564 4.12502 16.4268 4.125Z" stroke="#5669FF" stroke-linecap="round"/>
</svg>
